<svg width="1" height="1" viewBox="-1 0 18 18" fill="#000" preserveAspectRatio="none" xmlns="http://www.w3.org/2000/svg">
<path d="M6.37612 17.2179C5.15025 17.2179 4.0597 17.0189 3.10448 16.6209C2.14925 16.2229 1.39303 15.6816 0.835821 14.997C0.278607 14.3124 0 13.5244 0 12.6328C0 11.805 0.183085 11.0647 0.549254 10.4119C0.915423 9.74329 1.49652 9.12239 2.29254 8.54926C3.08856 7.9602 4.0995 7.38707 5.32537 6.82985C6.21692 6.41592 6.91741 6.04975 7.42687 5.73134C7.93632 5.41294 8.29453 5.11045 8.50149 4.82388C8.70846 4.52139 8.81194 4.21891 8.81194 3.91642C8.81194 3.50249 8.66866 3.16816 8.38209 2.91343C8.11144 2.65871 7.70547 2.53134 7.16418 2.53134C6.59105 2.53134 6.14527 2.67463 5.82687 2.96119C5.50846 3.24776 5.34925 3.61393 5.34925 4.0597C5.34925 4.29851 5.39702 4.53731 5.49254 4.77612C5.58806 4.99901 5.77114 5.26169 6.04179 5.56418C6.31244 5.85075 6.69453 6.22488 7.18806 6.68657L16 14.8537L13.9702 17.2179L4.25075 8.19105C3.69353 7.68159 3.24776 7.20398 2.91343 6.75821C2.5791 6.31244 2.33234 5.87463 2.17313 5.44478C2.02985 5.01493 1.95821 4.56916 1.95821 4.10746C1.95821 3.29552 2.17313 2.57911 2.60299 1.95821C3.03284 1.33731 3.63781 0.859702 4.41791 0.525374C5.19801 0.175125 6.11343 0 7.16418 0C8.13532 0 8.97114 0.159204 9.67164 0.477613C10.3881 0.7801 10.9453 1.21791 11.3433 1.79105C11.7572 2.36418 11.9642 3.04876 11.9642 3.84478C11.9642 4.54527 11.7891 5.19005 11.4388 5.77911C11.0886 6.35224 10.5393 6.89353 9.79105 7.40299C9.05871 7.91244 8.09552 8.42985 6.90149 8.95523C6.08955 9.32139 5.44478 9.6796 4.96716 10.0299C4.50547 10.3642 4.17114 10.7065 3.96418 11.0567C3.75721 11.407 3.65373 11.797 3.65373 12.2269C3.65373 12.6249 3.77313 12.9831 4.01194 13.3015C4.26667 13.6199 4.61692 13.8667 5.06269 14.0418C5.50846 14.2169 6.03383 14.3045 6.63881 14.3045C7.60995 14.3045 8.50149 14.0816 9.31343 13.6358C10.1254 13.1741 10.81 12.4975 11.3672 11.606C11.9403 10.6985 12.3463 9.6 12.5851 8.31045L15.5702 9.24179C15.2358 10.8657 14.6388 12.2746 13.7791 13.4687C12.9194 14.6627 11.8607 15.5861 10.603 16.2388C9.34527 16.8915 7.93632 17.2179 6.37612 17.2179Z" />
</svg>
