<svg width="1" height="1" viewBox="-2 -4 22 22" fill="inherit" preserveAspectRatio="none" xmlns="http://www.w3.org/2000/svg">
<path d="M1.70711 5.62623C1.31658 5.2357 0.683418 5.2357 0.292893 5.62623C-0.0976311 6.01675 -0.0976311 6.64992 0.292893 7.04044L1.70711 5.62623ZM6.33333 11.6667L5.62623 12.3738L6.33333 13.0809L7.04044 12.3738L6.33333 11.6667ZM17.7071 1.70711C18.0976 1.31658 18.0976 0.683418 17.7071 0.292893C17.3166 -0.0976311 16.6834 -0.0976311 16.2929 0.292893L17.7071 1.70711ZM0.292893 7.04044L5.62623 12.3738L7.04044 10.9596L1.70711 5.62623L0.292893 7.04044ZM7.04044 12.3738L17.7071 1.70711L16.2929 0.292893L5.62623 10.9596L7.04044 12.3738Z"/>
</svg>
