<svg width="1" height="1" viewBox="-2 -1 22 13" stroke="#000000" stroke-width="2" stroke-linecap="round" preserveAspectRatio="none" xmlns="http://www.w3.org/2000/svg">
<path d="M1.70711 0.292893C1.31658 -0.0976311 0.683418 -0.0976311 0.292893 0.292893C-0.0976311 0.683418 -0.0976311 1.31658 0.292893 1.70711L1.70711 0.292893ZM9 9L8.29289 9.70711L9 10.4142L9.70711 9.70711L9 9ZM17.7071 1.70711C18.0976 1.31658 18.0976 0.683418 17.7071 0.292893C17.3166 -0.0976311 16.6834 -0.0976311 16.2929 0.292893L17.7071 1.70711ZM0.292893 1.70711L8.29289 9.70711L9.70711 8.29289L1.70711 0.292893L0.292893 1.70711ZM9.70711 9.70711L17.7071 1.70711L16.2929 0.292893L8.29289 8.29289L9.70711 9.70711Z"/>
</svg>
