<svg width="1" height="1" viewBox="0 0 18 18" fill="#000" preserveAspectRatio="none" xmlns="http://www.w3.org/2000/svg">
<path d="M4.2 2C4.75228 2 5.2 1.55228 5.2 1C5.2 0.447715 4.75228 0 4.2 0V2ZM0 4C0 4.55228 0.447715 5 1 5C1.55228 5 2 4.55228 2 4H0ZM10 2C10 1.44772 9.55229 1 9 1C8.44772 1 8 1.44772 8 2H10ZM15.9333 9.5C16.4856 9.5 16.9333 9.05228 16.9333 8.5C16.9333 7.94772 16.4856 7.5 15.9333 7.5V9.5ZM2.06667 7.5C1.51438 7.5 1.06667 7.94772 1.06667 8.5C1.06667 9.05228 1.51438 9.5 2.06667 9.5V7.5ZM2 13C2 12.4477 1.55228 12 1 12C0.447715 12 0 12.4477 0 13H2ZM4.2 17C4.75228 17 5.2 16.5523 5.2 16C5.2 15.4477 4.75228 15 4.2 15V17ZM13.8 15C13.2477 15 12.8 15.4477 12.8 16C12.8 16.5523 13.2477 17 13.8 17V15ZM18 13C18 12.4477 17.5523 12 17 12C16.4477 12 16 12.4477 16 13H18ZM8 15C8 15.5523 8.44772 16 9 16C9.55229 16 10 15.5523 10 15H8ZM13.8 0C13.2477 0 12.8 0.447715 12.8 1C12.8 1.55228 13.2477 2 13.8 2V0ZM16 4C16 4.55228 16.4477 5 17 5C17.5523 5 18 4.55228 18 4H16ZM9 5.75C10.7186 5.75 12 7.04103 12 8.5H14C14 5.81683 11.6996 3.75 9 3.75V5.75ZM12 8.5C12 9.95897 10.7186 11.25 9 11.25V13.25C11.6996 13.25 14 11.1832 14 8.5H12ZM9 11.25C7.28137 11.25 6 9.95897 6 8.5H4C4 11.1832 6.30035 13.25 9 13.25V11.25ZM6 8.5C6 7.04103 7.28137 5.75 9 5.75V3.75C6.30035 3.75 4 5.81683 4 8.5H6ZM10 4.75V2H8V4.75H10ZM13 9.5H15.9333V7.5H13V9.5ZM5 7.5H2.06667V9.5H5V7.5ZM8 12.25V15H10V12.25H8ZM13.8 2C14.2072 2 14.7632 2.2806 15.2786 2.81753C15.5205 3.06953 15.7144 3.33958 15.8426 3.57996C15.9063 3.6994 15.9485 3.80149 15.9734 3.88155C15.9994 3.96486 16 4.00255 16 4H18C18 3.51631 17.8184 3.03453 17.6074 2.63879C17.3856 2.22292 17.0795 1.80547 16.7214 1.43247C16.0368 0.719399 14.9928 0 13.8 0V2ZM13.8 17C14.3335 17 14.8537 16.7679 15.2519 16.5368C15.6797 16.2885 16.1066 15.9583 16.4839 15.6045C16.8608 15.2512 17.2157 14.8487 17.4845 14.4417C17.7296 14.0704 18 13.5525 18 13H16C16 12.9475 16.0037 13.0546 15.8155 13.3396C15.651 13.5888 15.4059 13.8738 15.1161 14.1455C14.8267 14.4167 14.5203 14.649 14.2481 14.807C13.9463 14.9821 13.7998 15 13.8 15V17ZM4.2 15C4.20015 15 4.05371 14.9821 3.75195 14.807C3.47972 14.649 3.17325 14.4167 2.88394 14.1455C2.59413 13.8738 2.34902 13.5888 2.18449 13.3396C1.9963 13.0546 2 12.9475 2 13H0C0 13.5525 0.270372 14.0704 0.515512 14.4417C0.784318 14.8487 1.13921 15.2512 1.51606 15.6045C1.89342 15.9583 2.32028 16.2885 2.74805 16.5368C3.14629 16.7679 3.66652 17 4.2 17V15ZM2 4C2 4.05249 1.9963 3.9454 2.18449 3.6604C2.34902 3.41124 2.59413 3.12624 2.88394 2.85454C3.17325 2.58331 3.47972 2.35101 3.75195 2.19302C4.05371 2.0179 4.20015 2 4.2 2V0C3.66652 0 3.14629 0.232105 2.74805 0.463228C2.32028 0.711491 1.89342 1.04169 1.51606 1.39546C1.13921 1.74876 0.784318 2.15126 0.515512 2.55835C0.270372 2.9296 0 3.44751 0 4H2Z"/>
</svg>
