<svg width="1" height="1" viewBox="0 0 16 16" fill="#000000" preserveAspectRatio="none" xmlns="http://www.w3.org/2000/svg">
<path d="M7.32573 0.615637L0.325731 7.00694C0.118221 7.19641 0 7.46443 0 7.74543V8.90435V15C0 15.5523 0.447714 16 0.999999 16H4.6C5.15228 16 5.6 15.5523 5.6 15V11.4C5.6 10.8477 6.04771 10.4 6.6 10.4H9.4C9.95228 10.4 10.4 10.8477 10.4 11.4V15C10.4 15.5523 10.8477 16 11.4 16H15C15.5523 16 16 15.5523 16 15V8.90435V7.74543C16 7.46443 15.8818 7.19641 15.6743 7.00694L8.67427 0.615637C8.29237 0.266951 7.70762 0.266951 7.32573 0.615637Z"/>
</svg>
