<svg width="1" height="1" viewBox="-2 0 20 20" fill="#000" preserveAspectRatio="none" xmlns="http://www.w3.org/2000/svg">
<path d="M7.33333 4C6.96514 4 6.66667 4.29848 6.66667 4.66667C6.66667 5.03486 6.96514 5.33333 7.33333 5.33333C8.11651 5.33333 8.95549 5.73164 9.61193 6.38807C10.2684 7.04451 10.6667 7.88349 10.6667 8.66667C10.6667 9.03486 10.9651 9.33333 11.3333 9.33333C11.7015 9.33333 12 9.03486 12 8.66667C12 7.44985 11.3983 6.28883 10.5547 5.44526C9.71117 4.6017 8.55015 4 7.33333 4Z" />
<path fill-rule="evenodd" clip-rule="evenodd" d="M12 14.9297C14.3912 13.5465 16 10.9611 16 8C16 3.58172 12.4183 0 8 0C3.58172 0 0 3.58172 0 8C0 10.9611 1.60879 13.5465 4 14.9297V17.3333C4 18.8061 5.19391 20 6.66667 20H9.33333C10.8061 20 12 18.8061 12 17.3333V14.9297ZM8 2.66667C5.05448 2.66667 2.66667 5.05448 2.66667 8C2.66667 10.1207 3.90444 11.9523 5.69697 12.8118C5.95472 12.9354 6.18434 13.1148 6.35536 13.3333H9.64464C9.81566 13.1148 10.0453 12.9354 10.303 12.8118C12.0956 11.9523 13.3333 10.1207 13.3333 8C13.3333 5.05448 10.9455 2.66667 8 2.66667ZM6.66667 17.3333V14.6667H9.33333V17.3333H6.66667Z" />
</svg>
