<svg width="1" height="1" viewBox="0 0 16 16" fill="#000" preserveAspectRatio="none" xmlns="http://www.w3.org/2000/svg">
<path d="M4.23529 2.35294C4.23529 2.87274 4.65667 3.29412 5.17647 3.29412C5.69627 3.29412 6.11765 2.87274 6.11765 2.35294V0.941176C6.11765 0.421379 5.69627 0 5.17647 0C4.65667 0 4.23529 0.421379 4.23529 0.941176V2.35294Z" />
<path d="M7.05882 2.35294C7.05882 2.87274 7.4802 3.29412 8 3.29412C8.5198 3.29412 8.94118 2.87274 8.94118 2.35294V0.941176C8.94118 0.421379 8.5198 0 8 0C7.4802 0 7.05882 0.421379 7.05882 0.941176V2.35294Z" />
<path d="M9.88235 2.35294C9.88235 2.87274 10.3037 3.29412 10.8235 3.29412C11.3433 3.29412 11.7647 2.87274 11.7647 2.35294V0.941176C11.7647 0.421379 11.3433 0 10.8235 0C10.3037 0 9.88235 0.421379 9.88235 0.941176V2.35294Z" />
<path fill-rule="evenodd" clip-rule="evenodd" d="M3.76471 6.11765C3.76471 4.81815 4.81815 3.76471 6.11765 3.76471H9.88235C11.1818 3.76471 12.2353 4.81815 12.2353 6.11765V9.88235C12.2353 11.1818 11.1818 12.2353 9.88235 12.2353H6.11765C4.81815 12.2353 3.76471 11.1818 3.76471 9.88235V6.11765ZM5.64706 6.11765C5.64706 5.85775 5.85775 5.64706 6.11765 5.64706H9.88235C10.1423 5.64706 10.3529 5.85775 10.3529 6.11765V9.88235C10.3529 10.1423 10.1423 10.3529 9.88235 10.3529H6.11765C5.85775 10.3529 5.64706 10.1423 5.64706 9.88235V6.11765Z" />
<path d="M12.7059 5.17647C12.7059 4.65667 13.1273 4.23529 13.6471 4.23529H15.0588C15.5786 4.23529 16 4.65667 16 5.17647C16 5.69627 15.5786 6.11765 15.0588 6.11765H13.6471C13.1273 6.11765 12.7059 5.69627 12.7059 5.17647Z" />
<path d="M12.7059 8C12.7059 7.4802 13.1273 7.05882 13.6471 7.05882H15.0588C15.5786 7.05882 16 7.4802 16 8C16 8.5198 15.5786 8.94118 15.0588 8.94118H13.6471C13.1273 8.94118 12.7059 8.5198 12.7059 8Z" />
<path d="M12.7059 10.8235C12.7059 10.3037 13.1273 9.88235 13.6471 9.88235H15.0588C15.5786 9.88235 16 10.3037 16 10.8235C16 11.3433 15.5786 11.7647 15.0588 11.7647H13.6471C13.1273 11.7647 12.7059 11.3433 12.7059 10.8235Z" />
<path d="M5.17647 16C4.65667 16 4.23529 15.5786 4.23529 15.0588V13.6471C4.23529 13.1273 4.65667 12.7059 5.17647 12.7059C5.69627 12.7059 6.11765 13.1273 6.11765 13.6471V15.0588C6.11765 15.5786 5.69627 16 5.17647 16Z" />
<path d="M8 16C7.4802 16 7.05882 15.5786 7.05882 15.0588V13.6471C7.05882 13.1273 7.4802 12.7059 8 12.7059C8.5198 12.7059 8.94118 13.1273 8.94118 13.6471V15.0588C8.94118 15.5786 8.5198 16 8 16Z" />
<path d="M10.8235 16C10.3037 16 9.88235 15.5786 9.88235 15.0588V13.6471C9.88235 13.1273 10.3037 12.7059 10.8235 12.7059C11.3433 12.7059 11.7647 13.1273 11.7647 13.6471V15.0588C11.7647 15.5786 11.3433 16 10.8235 16Z" />
<path d="M0.941176 4.23529C0.421379 4.23529 0 4.65667 0 5.17647C0 5.69627 0.421379 6.11765 0.941176 6.11765H2.35294C2.87274 6.11765 3.29412 5.69627 3.29412 5.17647C3.29412 4.65667 2.87274 4.23529 2.35294 4.23529H0.941176Z" />
<path d="M0.941176 7.05882C0.421379 7.05882 0 7.4802 0 8C0 8.5198 0.421379 8.94118 0.941176 8.94118H2.35294C2.87274 8.94118 3.29412 8.5198 3.29412 8C3.29412 7.4802 2.87274 7.05882 2.35294 7.05882H0.941176Z" />
<path d="M0.941176 9.88235C0.421379 9.88235 0 10.3037 0 10.8235C0 11.3433 0.421379 11.7647 0.941176 11.7647H2.35294C2.87274 11.7647 3.29412 11.3433 3.29412 10.8235C3.29412 10.3037 2.87274 9.88235 2.35294 9.88235H0.941176Z" />
</svg>
