<svg width="1" height="1" viewBox="0 0 16 17" fill="#000" preserveAspectRatio="none" xmlns="http://www.w3.org/2000/svg">
<path d="M13.3333 9.15385C13.3333 12.0427 10.9455 14.3846 8 14.3846C5.05448 14.3846 2.66667 12.0427 2.66667 9.15385C2.66667 7.48806 3.4606 6.00414 4.69758 5.04621C5.07113 4.75693 5.33333 4.3354 5.33333 3.86859V3.60333C5.33333 2.70083 4.41776 2.07848 3.64621 2.5703C1.45146 3.96929 -6.10948e-07 6.39533 -6.10948e-07 9.15385C-6.10948e-07 13.4872 3.58172 17 8 17C12.4183 17 16 13.4872 16 9.15385C16 6.39533 14.5485 3.96929 12.3538 2.5703C11.5822 2.07848 10.6667 2.70083 10.6667 3.60333V3.8686C10.6667 4.3354 10.9289 4.75693 11.3024 5.04621C12.5394 6.00414 13.3333 7.48806 13.3333 9.15385Z"/>
<path d="M9.33333 9.01374C9.33333 9.73596 8.73638 10.3214 8 10.3214C7.26362 10.3214 6.66667 9.73596 6.66667 9.01374V1.30769C6.66667 0.585474 7.26362 2.72478e-07 8 2.72478e-07C8.73638 2.72478e-07 9.33333 0.585474 9.33333 1.30769L9.33333 9.01374Z"/>
</svg>
